<svg xmlns="http://www.w3.org/2000/svg" viewBox="0 0 1047.3 694.09"><defs><style>.cls-1{font-size:8px;font-family:ACaslonPro-Regular, Adobe Caslon Pro;}.cls-2{letter-spacing:-0.03em;}.cls-3{letter-spacing:0.01em;}.cls-4{letter-spacing:-0.01em;}.cls-5{letter-spacing:-0.02em;}</style></defs><title>Asset 4</title><g id="Layer_2" data-name="Layer 2"><g id="Layer_1-2" data-name="Layer 1"><rect x="438.65" y="38.95" width="84" height="6.1" transform="translate(522.65 -438.65) rotate(90)"/><rect x="614.35" y="38.95" width="84" height="6.1" transform="translate(698.35 -614.35) rotate(90)"/><rect y="77.8" width="477.6" height="6.1" transform="translate(477.61 161.7) rotate(180)"/><rect x="-123.7" y="207.6" width="253.5" height="6.1" transform="translate(-207.6 213.7) rotate(-90)"/><rect x="56.3" y="471.55" width="274.4" height="6.1" transform="translate(-281.09 668.11) rotate(-90)"/><rect x="607" y="488.1" width="405.9" height="6.1" transform="translate(318.81 1301.1) rotate(-90)"/><rect x="807" y="288.2" width="240.3" height="6.1"/><rect x="658.42" y="77.9" width="383.65" height="6.1"/><rect x="936.05" y="183.05" width="216.4" height="6.1" transform="translate(1230.35 -858.15) rotate(90)"/><rect x="461.75" y="649.85" width="82.2" height="6.1" transform="translate(-150.04 1155.76) rotate(-90)"/><rect x="190.46" y="605.7" width="315.45" height="6.1"/><rect x="6.1" y="331.3" width="190.45" height="6.1" transform="translate(202.66 668.7) rotate(180)"/><text class="cls-1" transform="translate(627.58 649.65)"><tspan class="cls-2">E</tspan><tspan x="5.32" y="0">N</tspan><tspan class="cls-3" x="11.68" y="0">T</tspan><tspan class="cls-4" x="17.38" y="0">R</tspan><tspan x="22.87" y="0">ANCE</tspan></text><text class="cls-1" transform="translate(558.98 45.8)"><tspan class="cls-5">E</tspan><tspan x="5.4" y="0">X</tspan><tspan class="cls-3" x="10.98" y="0">I</tspan><tspan x="14.02" y="0">T</tspan></text></g></g></svg>