<svg xmlns="http://www.w3.org/2000/svg" viewBox="0 0 1330 744"><defs><style>.cls-1{fill:#231815;}</style></defs><title>Asset 3</title><g id="Layer_2" data-name="Layer 2"><g id="Layer_1-2" data-name="Layer 1"><rect class="cls-1" width="29" height="744"/><rect class="cls-1" x="263" y="275" width="8" height="469"/><rect class="cls-1" x="40.5" y="235.5" width="8" height="87" transform="translate(323.5 234.5) rotate(90)"/><rect class="cls-1" x="231" y="243" width="8" height="72" transform="translate(514 44) rotate(90)"/><rect class="cls-1" x="1121" y="160" width="8" height="72" transform="translate(1321 -929) rotate(90)"/><rect class="cls-1" x="1290" y="160" width="8" height="72" transform="translate(1490 -1098) rotate(90)"/><rect class="cls-1" x="1089" y="192" width="8" height="523"/><rect class="cls-1" x="1301" width="29" height="744"/><rect class="cls-1" x="305.5" y="410.5" width="29" height="638" transform="translate(1049.5 409.5) rotate(90)"/><rect class="cls-1" x="1195" y="609" width="29" height="241" transform="translate(1939 -480) rotate(90)"/><rect class="cls-1" x="252.5" y="-252.5" width="29" height="534" transform="translate(281.5 -252.5) rotate(90)"/><rect class="cls-1" x="1039" y="-262" width="29" height="553" transform="translate(1068 -1039) rotate(90)"/></g></g></svg>