<svg xmlns="http://www.w3.org/2000/svg" viewBox="0 0 1285 694.61"><defs><style>.cls-1,.cls-2{fill:#fff;}.cls-2{font-size:12px;font-family:ACaslonPro-Regular, Adobe Caslon Pro;}.cls-3{letter-spacing:-0.02em;}.cls-4{letter-spacing:0.01em;}.cls-5{letter-spacing:-0.01em;}.cls-6{letter-spacing:-0.01em;}.cls-7{letter-spacing:0.01em;}</style></defs><title>Asset 1</title><g id="Layer_2" data-name="Layer 2"><g id="Layer_1-2" data-name="Layer 1"><rect width="1285" height="694.61"/><rect class="cls-1" x="569.15" y="39.25" width="84" height="6.1" transform="translate(653.45 -568.85) rotate(90)"/><rect class="cls-1" x="744.85" y="39.25" width="84" height="6.1" transform="translate(829.15 -744.55) rotate(90)"/><rect class="cls-1" x="130.5" y="78.1" width="477.6" height="6.1" transform="translate(738.6 162.31) rotate(180)"/><rect class="cls-1" x="6.8" y="207.9" width="253.5" height="6.1" transform="translate(-77.41 344.5) rotate(-90)"/><rect class="cls-1" x="186.8" y="471.85" width="274.4" height="6.1" transform="translate(-150.9 798.91) rotate(-90)"/><rect class="cls-1" x="737.5" y="488.4" width="405.9" height="6.1" transform="translate(449.01 1431.9) rotate(-90)"/><rect class="cls-1" x="937.5" y="288.5" width="240.3" height="6.1"/><rect class="cls-1" x="788.92" y="78.2" width="383.65" height="6.1"/><rect class="cls-1" x="1066.55" y="183.35" width="216.4" height="6.1" transform="translate(1361.15 -988.35) rotate(90)"/><rect class="cls-1" x="592.25" y="650.15" width="82.2" height="6.1" transform="translate(-19.84 1286.56) rotate(-90)"/><rect class="cls-1" x="320.95" y="606.01" width="315.45" height="6.1"/><rect class="cls-1" x="136.6" y="331.6" width="190.45" height="6.1" transform="translate(463.65 669.31) rotate(180)"/><text class="cls-2" transform="translate(746.41 652.84)"><tspan class="cls-3">E</tspan><tspan x="7.98" y="0">N</tspan><tspan class="cls-4" x="17.52" y="0">T</tspan><tspan class="cls-5" x="26.06" y="0">R</tspan><tspan x="34.31" y="0">ANCE</tspan></text><text class="cls-2" transform="translate(684.57 48.99)"><tspan class="cls-6">E</tspan><tspan x="8.1" y="0">X</tspan><tspan class="cls-7" x="16.46" y="0">I</tspan><tspan x="21.04" y="0">T</tspan></text></g></g></svg>