<svg xmlns="http://www.w3.org/2000/svg" viewBox="0 0 1322 750"><defs><style>.cls-1{fill:#fff;}</style></defs><title>Asset 1</title><g id="Layer_2" data-name="Layer 2"><g id="Layer_1-2" data-name="Layer 1"><path d="M1307,25V723H15V25H1307m15-15H0V738H1322V10Z"/><path d="M287,362V734H4V362H287m4-4H0V738H291V358Z"/><path d="M1318,29V284h-38V29h38m4-4h-46V288h46V25Z"/><path d="M1318,288V734H1035V288h283m4-4H1031V738h291V284Z"/><rect class="cls-1" x="610" y="718" width="421" height="32"/><rect class="cls-1" x="610" width="207" height="32"/><rect class="cls-1" x="87" y="342" width="118" height="32"/><rect class="cls-1" x="1116" y="272" width="109" height="32"/></g></g></svg>