<svg xmlns="http://www.w3.org/2000/svg" viewBox="0 0 1285 694"><defs><style>.cls-1{fill:#fff;}</style></defs><title>Asset 4</title><g id="Layer_2" data-name="Layer 2"><g id="Layer_1-2" data-name="Layer 1"><path d="M1270,24.25V667.9H15V24.25H1270m15-15H0V682.9H1285V9.25Z"/><path d="M278.86,335.27V678.9H4V335.27H278.86m4-4H0V682.9H282.86V331.27Z"/><path d="M1281,27.13V262.5h-36.71V27.13H1281m4-4h-44.71V266.5H1285V23.13Z"/><path d="M1281,266.79V678.9H1006.14V266.79H1281m4-4H1002.14V682.9H1285V262.79Z"/><rect class="cls-1" x="592.93" y="664.39" width="409.22" height="29.61"/><rect class="cls-1" x="592.93" width="201.21" height="29.61"/><rect class="cls-1" x="84.57" y="316.46" width="114.7" height="29.61"/><rect class="cls-1" x="1084.77" y="251.69" width="105.95" height="29.61"/></g></g></svg>