<svg xmlns="http://www.w3.org/2000/svg" viewBox="0 0 1285 858.92"><defs><style>.cls-1{fill:#fff;}</style></defs><title>Asset 4</title><g id="Layer_2" data-name="Layer 2"><g id="Layer_1-2" data-name="Layer 1"><rect y="164.92" width="1285" height="694"/><path d="M357.73,502.36V782.42h-224V502.36h224M361,499.1H130.46V785.68H361Z"/><path class="cls-1" d="M1165.52,248.88V773.46H142.68V248.88H1165.52m12.22-12.23H130.46v549H1177.74Z"/><rect x="640.79" y="766.41" width="536.95" height="24.13"/><rect x="137.53" y="766.41" width="480.71" height="24.13"/><rect x="588.06" y="776.71" width="333.52" height="24.13"/><rect x="613.7" y="229.12" width="163.99" height="24.13"/><rect x="199.38" y="487.03" width="93.48" height="24.13"/><rect class="cls-1" x="357.73" y="764.49" width="284.77" height="12.23"/><rect x="931.28" y="764.49" width="12.23" height="12.23"/><rect x="1153.45" y="434.56" width="36.62" height="343.92"/><rect class="cls-1" x="130.46" y="490.14" width="230.53" height="12.23"/><rect class="cls-1" x="371.49" y="236.65" width="248.88" height="12.23"/><rect class="cls-1" x="608.15" width="12.23" height="248.88"/><rect class="cls-1" x="777.69" width="12.23" height="248.88"/><rect x="1014.78" y="434.82" width="86.35" height="24.13"/><rect class="cls-1" x="931.28" y="446.89" width="246.47" height="12.23"/><rect class="cls-1" x="1165.52" y="256.06" width="12.23" height="196.27"/><rect class="cls-1" x="348.77" y="490.14" width="12.23" height="286.57"/><rect class="cls-1" x="931.28" y="446.89" width="12.23" height="329.83"/><rect class="cls-1" x="630.27" y="764.49" width="12.23" height="94.44"/><rect class="cls-1" x="931.28" y="764.49" width="12.23" height="94.44"/><rect x="117.97" y="502.36" width="36.79" height="284.51"/></g></g></svg>