<svg xmlns="http://www.w3.org/2000/svg" viewBox="0 0 1285 694"><defs><style>.cls-1{fill:#fff;}</style></defs><title>Asset 5</title><g id="Layer_2" data-name="Layer 2"><g id="Layer_1-2" data-name="Layer 1"><rect width="1285" height="694"/><path d="M357.73,337.44V617.5h-224V337.44h224m3.26-3.26H130.46V620.76H361Z"/><path class="cls-1" d="M1165.52,84V608.54H142.68V84H1165.52m12.22-12.23H130.46v549H1177.74Z"/><rect x="640.79" y="601.49" width="536.95" height="24.13"/><rect x="137.53" y="601.49" width="480.71" height="24.13"/><rect x="588.06" y="611.79" width="333.52" height="24.13"/><rect x="613.7" y="64.19" width="163.99" height="24.13"/><rect x="199.38" y="322.11" width="93.48" height="24.13"/><rect class="cls-1" x="357.73" y="599.56" width="284.77" height="12.23"/><rect x="931.28" y="599.56" width="12.23" height="12.23"/><rect class="cls-1" x="130.46" y="325.21" width="230.53" height="12.23"/><rect class="cls-1" x="371.49" y="71.73" width="248.88" height="12.23"/><rect class="cls-1" x="608.15" width="12.23" height="83.96"/><rect class="cls-1" x="777.69" width="12.23" height="83.96"/><rect class="cls-1" x="931.28" y="281.96" width="246.47" height="12.23"/><rect class="cls-1" x="348.77" y="325.21" width="12.23" height="286.57"/><rect class="cls-1" x="931.28" y="281.96" width="12.23" height="329.83"/><rect class="cls-1" x="630.27" y="599.56" width="12.23" height="94.44"/><rect class="cls-1" x="931.28" y="599.56" width="12.23" height="94.44"/><rect x="117.97" y="337.44" width="36.79" height="284.51"/></g></g></svg>