<?xml version="1.0" encoding="utf-8"?>
<!-- Generator: Adobe Illustrator 23.0.1, SVG Export Plug-In . SVG Version: 6.00 Build 0)  -->
<svg version="1.1" id="Layer_1" xmlns="http://www.w3.org/2000/svg" xmlns:xlink="http://www.w3.org/1999/xlink" x="0px" y="0px"
	 viewBox="0 0 1285 694" style="enable-background:new 0 0 1285 694;" xml:space="preserve">
<style type="text/css">
	.st0{fill:#FFFFFF;}
</style>
<rect x="0" y="0" width="1285" height="694"/>
<title>Asset 4</title>
<path d="M357.7,337.4v280.1h-224V337.4H357.7 M361,334.2H130.5v286.6H361V334.2z"/>
<path class="st0" d="M1165.5,84v524.6H142.7V84H1165.5 M1177.7,71.7H130.5v549h1047.3V71.7z"/>
<rect x="640.8" y="601.5" width="537" height="24.1"/>
<rect x="137.5" y="601.5" width="480.7" height="24.1"/>
<rect x="588.1" y="611.8" width="333.5" height="24.1"/>
<rect x="613.7" y="64.2" width="164" height="24.1"/>
<rect x="199.4" y="322.1" width="93.5" height="24.1"/>
<rect x="357.7" y="599.6" class="st0" width="284.8" height="12.2"/>
<rect x="931.3" y="599.6" width="12.2" height="12.2"/>
<rect x="1153.5" y="269.6" width="36.6" height="343.9"/>
<rect x="130.5" y="325.2" class="st0" width="230.5" height="12.2"/>
<rect x="371.5" y="71.7" class="st0" width="248.9" height="12.2"/>
<rect x="608.1" y="0" class="st0" width="12.2" height="84"/>
<rect x="777.7" y="0" class="st0" width="12.2" height="84"/>
<rect x="1014.8" y="269.9" width="86.3" height="24.1"/>
<rect x="931.3" y="282" class="st0" width="246.5" height="12.2"/>
<rect x="1165.5" y="91.1" class="st0" width="12.2" height="196.3"/>
<rect x="348.8" y="325.2" class="st0" width="12.2" height="286.6"/>
<rect x="931.3" y="282" class="st0" width="12.2" height="329.8"/>
<rect x="630.3" y="599.6" class="st0" width="12.2" height="94.4"/>
<rect x="931.3" y="599.6" class="st0" width="12.2" height="94.4"/>
<rect x="118" y="337.4" width="36.8" height="284.5"/>
</svg>
