<svg xmlns="http://www.w3.org/2000/svg" viewBox="0 0 390.41 461.36"><defs><style>.cls-1{font-size:12px;font-family:BasicGothicPro-Medium, Basic Gothic Pro;font-weight:500;}.cls-2{font-family:BasicGothicPro, Basic Gothic Pro;font-weight:400;}.cls-3{letter-spacing:-0.01em;}.cls-4{letter-spacing:-0.01em;}.cls-5{letter-spacing:-0.01em;}.cls-6{letter-spacing:-0.05em;}.cls-7{letter-spacing:0em;}.cls-8{letter-spacing:-0.01em;}.cls-9{letter-spacing:-0.02em;}.cls-10{letter-spacing:0em;}.cls-11{letter-spacing:0em;}.cls-12{letter-spacing:-0.01em;}.cls-13{letter-spacing:-0.02em;}.cls-14{letter-spacing:-0.01em;}.cls-15{letter-spacing:-0.01em;}.cls-16{letter-spacing:-0.01em;}.cls-17{letter-spacing:-0.01em;}.cls-18{letter-spacing:-0.01em;}</style></defs><title>Asset 7</title><g id="Layer_2" data-name="Layer 2"><g id="Layer_1-2" data-name="Layer 1"><text class="cls-1" transform="translate(0 9.94)">Spider<tspan class="cls-2"><tspan x="0" y="17">1995</tspan><tspan class="cls-3" x="0" y="34">S</tspan><tspan x="6.43" y="34">teel</tspan><tspan x="0" y="68">Spider balances p</tspan><tspan class="cls-3" x="98.85" y="68">r</tspan><tspan x="103.8" y="68">ecariously on pointed </tspan><tspan class="cls-4" x="227.88" y="68">f</tspan><tspan x="233.22" y="68">e</tspan><tspan class="cls-3" x="239.65" y="68">e</tspan><tspan x="245.96" y="68">t.</tspan><tspan x="0" y="85">It’s looming p</tspan><tspan class="cls-3" x="77.01" y="85">r</tspan><tspan x="81.96" y="85">esence suggests b</tspan><tspan class="cls-4" x="184.62" y="85">o</tspan><tspan x="191.21" y="85">th st</tspan><tspan class="cls-3" x="218.23" y="85">r</tspan><tspan x="223.17" y="85">ength</tspan><tspan x="0" y="102">and vulne</tspan><tspan class="cls-5" x="54.41" y="102">r</tspan><tspan x="59.41" y="102">abilit</tspan><tspan class="cls-6" x="88.8" y="102">y</tspan><tspan x="94.39" y="102">, composu</tspan><tspan class="cls-3" x="151.71" y="102">r</tspan><tspan x="156.66" y="102">e and anxi</tspan><tspan class="cls-4" x="214.44" y="102">e</tspan><tspan x="220.75" y="102">ty</tspan><tspan x="0" y="119">cont</tspan><tspan class="cls-5" x="25.6" y="119">r</tspan><tspan class="cls-4" x="30.6" y="119">a</tspan><tspan x="37.22" y="119">dictory qualities th</tspan><tspan class="cls-3" x="145.2" y="119">a</tspan><tspan x="151.82" y="119">t often co</tspan><tspan class="cls-7" x="208.02" y="119">e</tspan><tspan x="214.39" y="119">xist in </tspan><tspan x="0" y="136">Bou</tspan><tspan class="cls-3" x="20.74" y="136">r</tspan><tspan x="25.68" y="136">geois’s </tspan><tspan class="cls-8" x="67.68" y="136">w</tspan><tspan x="77.04" y="136">ork,</tspan><tspan class="cls-9" x="99.18" y="136"> </tspan><tspan x="102.26" y="136">Th</tspan><tspan class="cls-4" x="115.79" y="136">r</tspan><tspan x="120.73" y="136">ough this scul</tspan><tspan class="cls-3" x="199.4" y="136">p</tspan><tspan x="206.3" y="136">tu</tspan><tspan class="cls-3" x="218.56" y="136">r</tspan><tspan class="cls-10" x="223.51" y="136">e stands </tspan><tspan x="0" y="153">mo</tspan><tspan class="cls-3" x="17.72" y="153">r</tspan><tspan x="22.67" y="153">e than ten </tspan><tspan class="cls-4" x="84.55" y="153">f</tspan><tspan x="89.89" y="153">e</tspan><tspan class="cls-3" x="96.32" y="153">e</tspan><tspan x="102.64" y="153">t high, the artist m</tspan><tspan class="cls-4" x="211.58" y="153">a</tspan><tspan class="cls-11" x="218.21" y="153">de </tspan><tspan class="cls-12" x="235.03" y="153">e</tspan><tspan class="cls-13" x="241.29" y="153">v</tspan><tspan x="247.43" y="153">en </tspan><tspan x="0" y="170">bigger spiders-one mo</tspan><tspan class="cls-3" x="127.19" y="170">r</tspan><tspan x="132.13" y="170">e than thirty </tspan><tspan class="cls-4" x="207.72" y="170">f</tspan><tspan x="213.06" y="170">e</tspan><tspan class="cls-3" x="219.49" y="170">e</tspan><tspan x="225.8" y="170">t tall</tspan><tspan x="0" y="187">to </tspan><tspan class="cls-5" x="15.38" y="187">e</tspan><tspan x="21.76" y="187">xplo</tspan><tspan class="cls-4" x="44.95" y="187">r</tspan><tspan x="49.9" y="187">e the p</tspan><tspan class="cls-14" x="88.98" y="187">s</tspan><tspan class="cls-15" x="94.69" y="187">y</tspan><tspan x="100.78" y="187">chological imp</tspan><tspan class="cls-4" x="182.69" y="187">a</tspan><tspan x="189.31" y="187">ct of shifts in </tspan><tspan x="0" y="204">scale. She beli</tspan><tspan class="cls-16" x="79.09" y="204">e</tspan><tspan class="cls-17" x="85.35" y="204">v</tspan><tspan class="cls-11" x="91.49" y="204">ed th</tspan><tspan class="cls-4" x="120.86" y="204">a</tspan><tspan x="127.49" y="204">t these la</tspan><tspan class="cls-3" x="180.66" y="204">r</tspan><tspan x="185.6" y="204">ge </tspan><tspan class="cls-8" x="202.46" y="204">w</tspan><tspan x="211.82" y="204">orks con</tspan><tspan class="cls-13" x="0" y="221">v</tspan><tspan class="cls-18" x="6.13" y="221">e</tspan><tspan x="12.47" y="221">y a p</tspan><tspan class="cls-15" x="39.11" y="221">ow</tspan><tspan x="55.03" y="221">er</tspan><tspan class="cls-4" x="66.53" y="221">f</tspan><tspan x="71.87" y="221">ul and p</tspan><tspan class="cls-3" x="116.67" y="221">ro</tspan><tspan class="cls-10" x="128.21" y="221">tecti</tspan><tspan class="cls-17" x="155.17" y="221">v</tspan><tspan x="161.3" y="221">e m</tspan><tspan class="cls-3" x="182.07" y="221">a</tspan><tspan x="188.7" y="221">ternal </tspan><tspan class="cls-4" x="226.03" y="221">f</tspan><tspan x="231.37" y="221">o</tspan><tspan class="cls-3" x="238.08" y="221">r</tspan><tspan x="243.02" y="221">ce.</tspan></tspan></text></g></g></svg>